<svg xmlns="http://www.w3.org/2000/svg" width="37" height="37" viewBox="0 0 37 37">
  <g id="icon2" transform="translate(-165 -102)">
    <g id="Group_227" data-name="Group 227" transform="translate(169 105)">
      <path id="Path_88" data-name="Path 88" d="M12.128,20.373,7.4,15.645l1.883-1.883,2.832,2.832,5.663-5.663,1.883,1.883Z" transform="translate(1.141 2.998)" fill="#aa6eac"/>
      <path id="Path_89" data-name="Path 89" d="M17.357,2H6.671A2.668,2.668,0,0,0,4.013,4.671L4,26.043a2.668,2.668,0,0,0,2.658,2.671H22.7a2.679,2.679,0,0,0,2.671-2.671V10.014ZM16.021,4l7.346,7.346H16.021Zm7.464,21.391a1.354,1.354,0,0,1-1.354,1.354H7.163a1.355,1.355,0,0,1-1.356-1.354V5.359A1.355,1.355,0,0,1,7.163,4h7.405v8.368a.549.549,0,0,0,.55.549h8.367Z" fill="#aa6eac"/>
    </g>
    <rect id="Rectangle_72" data-name="Rectangle 72" width="37" height="37" transform="translate(165 102)" fill="none"/>
  </g>
</svg>
