<svg xmlns="http://www.w3.org/2000/svg" width="37" height="37" viewBox="0 0 37 37">
  <g id="icon1" transform="translate(-69 -102)">
    <g id="フラスコのアイコン1" transform="translate(-5.146 106)">
      <path id="Path_83" data-name="Path 83" d="M102.449,151.289l-5.323-8.5a4.515,4.515,0,0,1-.688-2.395l.007-6.346-6.824-.007-.007,6.341a4.519,4.519,0,0,1-.693,2.4l-5.342,8.492a2.824,2.824,0,0,0,2.389,4.328l14.083.015h0c.038,0,.057,0,.058,0v0a2.824,2.824,0,0,0,2.415-1.451h0a2.826,2.826,0,0,0-.076-2.867Zm-1.365,2.069a1.174,1.174,0,0,1-1.029.606h-.008l-14.077-.015a1.178,1.178,0,0,1-1-1.8l5.341-8.491a6.164,6.164,0,0,0,.946-3.274l0-4.694,3.53,0-.005,4.695v.006a6.162,6.162,0,0,0,.939,3.269l5.323,8.5a1.175,1.175,0,0,1,.032,1.2Z" transform="translate(0 -126.388)" fill="#aa6eac"/>
      <path id="Path_84" data-name="Path 84" d="M254.373,2.667a1.333,1.333,0,1,0-1.332-1.335A1.334,1.334,0,0,0,254.373,2.667Z" transform="translate(-160.198 0)" fill="#aa6eac"/>
      <path id="Path_85" data-name="Path 85" d="M237.247,88.113a.784.784,0,1,0-.784-.785A.783.783,0,0,0,237.247,88.113Z" transform="translate(-144.566 -81.604)" fill="#aa6eac"/>
      <path id="Path_86" data-name="Path 86" d="M279.149,61.51a.938.938,0,1,0,.939-.935A.939.939,0,0,0,279.149,61.51Z" transform="translate(-184.815 -57.117)" fill="#aa6eac"/>
      <path id="Path_87" data-name="Path 87" d="M150.466,346.4a.332.332,0,0,0-.282-.157l-5.122-.005a.331.331,0,0,0-.282.156l-3.674,5.839a.334.334,0,0,0,.282.511l12.455.013a.332.332,0,0,0,.282-.51Zm-4.053,3.036a.882.882,0,1,1,.882-.882A.882.882,0,0,1,146.413,349.435Zm2.824,1.941a.588.588,0,1,1,.588-.588A.588.588,0,0,1,149.237,351.376Z" transform="translate(-54.604 -326.474)" fill="#aa6eac"/>
    </g>
    <rect id="Rectangle_71" data-name="Rectangle 71" width="37" height="37" transform="translate(69 102)" fill="none"/>
  </g>
</svg>
