<svg xmlns="http://www.w3.org/2000/svg" width="37" height="37" viewBox="0 0 37 37">
  <g id="icon5" transform="translate(-427 -102)">
    <g id="写真アイコン10" transform="translate(431 68.947)">
      <path id="Path_93" data-name="Path 93" d="M69.416,108.468v20.948H94.853V108.468ZM92.857,127.42H71.411V110.463H92.857Z" transform="translate(-65.426 -65.426)" fill="#448fe5"/>
      <path id="Path_94" data-name="Path 94" d="M146.047,240.776a1.113,1.113,0,0,0-1.86,0l-3.588,5.461-1.98-2.244a1.114,1.114,0,0,0-1.766.126l-3.324,5.064H151.6Z" transform="translate(-125.855 -189.658)" fill="#448fe5"/>
      <path id="Path_95" data-name="Path 95" d="M183.626,194.779a2.258,2.258,0,1,0-2.258-2.259A2.258,2.258,0,0,0,183.626,194.779Z" transform="translate(-170.944 -142.519)" fill="#448fe5"/>
      <path id="Path_96" data-name="Path 96" d="M25.437,41.048V39.053H0V60H2V41.048H25.437Z" fill="#448fe5"/>
    </g>
    <rect id="Rectangle_75" data-name="Rectangle 75" width="37" height="37" transform="translate(427 102)" fill="none"/>
  </g>
</svg>
