<svg xmlns="http://www.w3.org/2000/svg" width="37" height="37" viewBox="0 0 37 37">
  <g id="icon3" transform="translate(-292 -102)">
    <g id="Group_219" data-name="Group 219" transform="translate(329.745 -194.635)">
      <path id="Path_77" data-name="Path 77" d="M-33.732,306.619l3.8-1.771q5.515-2.561,11.026-5.126a.7.7,0,0,1,.668,0q7.062,3.36,14.136,6.692a.525.525,0,0,1,.352.567q-.015,7.487,0,14.974a.641.641,0,0,1-.4.675q-6.929,3.559-13.841,7.151a.6.6,0,0,1-.6,0q-7.428-3.588-14.862-7.158a.385.385,0,0,1-.271-.388q-.005-7.751-.021-15.5C-33.745,306.7-33.738,306.671-33.732,306.619Zm1.248.876c-.009.142-.021.236-.021.331q0,6.809-.007,13.619a.423.423,0,0,0,.282.448q6.308,3.024,12.611,6.061l.468.224c.007-.145.016-.24.016-.336q0-7.058,0-14.113a.424.424,0,0,0-.3-.463q-6.31-2.782-12.612-5.585C-32.174,307.621-32.313,307.567-32.484,307.5Zm19.159,3.686c-.178.079-.288.124-.393.176-1.292.626-2.58,1.259-3.876,1.873a.486.486,0,0,0-.33.517q.021,7.059.021,14.118v.374c.135-.056.207-.082.272-.115q6.2-3.14,12.406-6.275a.405.405,0,0,0,.245-.435q-.007-6.845,0-13.692v-.39c-.167.07-.277.115-.384.164-1.165.534-2.326,1.077-3.5,1.6a.45.45,0,0,0-.305.495c.009,2.084,0,4.169.009,6.253a.456.456,0,0,1-.281.486c-1.188.587-2.367,1.19-3.551,1.789-.092.047-.189.083-.331.143Zm-18.05-4.347c.138.07.2.109.271.139q6.151,2.656,12.3,5.306a.609.609,0,0,0,.452-.013c1.314-.652,2.62-1.32,3.928-1.984.075-.038.144-.091.241-.15-.092-.051-.155-.092-.221-.122q-5.914-2.622-11.83-5.24a.627.627,0,0,0-.456.006c-1.027.438-2.046.9-3.067,1.344Zm8.905-4.09c.127.065.192.1.26.132q6.079,2.75,12.16,5.49a.609.609,0,0,0,.451-.021c1-.477,1.986-.973,2.978-1.466.091-.045.179-.1.307-.172-.159-.078-.264-.132-.371-.183-3.672-1.691-7.352-3.362-11-5.092a1.949,1.949,0,0,0-2.025,0C-20.574,301.925-21.508,302.293-22.47,302.744Z" transform="translate(0)" fill="#448fe5" fill-rule="evenodd"/>
    </g>
    <rect id="Rectangle_73" data-name="Rectangle 73" width="37" height="37" transform="translate(292 102)" fill="none"/>
  </g>
</svg>
