<svg xmlns="http://www.w3.org/2000/svg" width="37" height="37" viewBox="0 0 37 37">
  <g id="icon9" transform="translate(-793 -102)">
    <g id="Group_238" data-name="Group 238" transform="translate(743.106 105.034)">
      <g id="Group_237" data-name="Group 237" transform="translate(55.894 0.966)">
        <path id="Path_108" data-name="Path 108" d="M78.717,5.6a11.592,11.592,0,0,1-8.036-3.287L68.59,0,66.5,2.316A11.592,11.592,0,0,1,58.464,5.6l-2.57.132V16.7c0,6.973,10.266,12.13,11.436,12.7L68.59,30l1.26-.609c1.17-.565,11.436-5.722,11.436-12.7V5.735ZM68.59,3.925c2.267,2.513,5.895,3.978,9.976,4.188V16.7c0,5.653-9.976,10.468-9.976,10.468S58.615,22.349,58.615,16.7V8.112C62.7,7.9,66.324,6.437,68.59,3.925Z" transform="translate(-55.894)" fill="#c99e5e"/>
      </g>
      <path id="Path_109" data-name="Path 109" d="M168.964,288.875c-1.991,0-5.964,1-5.964,2.982v1.491h11.928v-1.491C174.928,289.874,170.955,288.875,168.964,288.875Z" transform="translate(-100.31 -270.546)" fill="#c99e5e"/>
      <path id="Path_110" data-name="Path 110" d="M201.6,163.887h7.272a.418.418,0,0,0,.418-.418v-.017a.418.418,0,0,0-.418-.418h-.23a3.407,3.407,0,0,0-1.705-2.941v.81a.426.426,0,0,1-.853,0v-1.159a3.1,3.1,0,0,0-1.7,0V160.9a.426.426,0,0,1-.853,0v-.81a3.407,3.407,0,0,0-1.705,2.941H201.6a.418.418,0,0,0-.418.418v.026A.417.417,0,0,0,201.6,163.887Z" transform="translate(-136.583 -149.979)" fill="#c99e5e"/>
      <path id="Path_111" data-name="Path 111" d="M214.936,232.683a3.41,3.41,0,0,0,3.291-2.558h-6.581A3.41,3.41,0,0,0,214.936,232.683Z" transform="translate(-146.282 -215.363)" fill="#c99e5e"/>
    </g>
    <rect id="Rectangle_79" data-name="Rectangle 79" width="37" height="37" transform="translate(793 102)" fill="none"/>
  </g>
</svg>
